<svg width="100%" height="100%" viewBox="0 0 768 768" version="1.1" xmlns="http://www.w3.org/2000/svg" xml:space="preserve" fill-rule="evenodd" clip-rule="evenodd" stroke-linejoin="round" stroke-miterlimit="2"><path d="M372.171 97.769c-27.31 0-50.983 5.526-71.015 16.526-20.031 11.011-36.558 25.985-49.532 44.921-13.001 18.934-22.586 40.618-28.749 65.062-6.16 24.436-9.237 50.308-9.237 77.628 0 26.862 3.077 52.61 9.237 77.273 6.163 24.671 15.748 46.473 28.749 65.409 12.974 18.936 29.501 33.911 49.532 44.903 20.032 11.019 43.705 16.522 71.015 16.522 27.297 0 50.968-5.503 71.018-16.522 20.039-10.992 36.542-25.967 49.532-44.903 13-18.933 22.57-40.738 28.746-65.409 6.162-24.661 9.247-50.411 9.247-77.273 0-27.32-3.085-53.19-9.247-77.628-6.176-24.444-15.746-46.128-28.746-65.062-12.99-18.936-29.493-33.91-49.532-44.921-20.05-11-43.721-16.526-71.018-16.526M142.157 588.304c16.302-11.011 33.699-18.38 52.184-22.12a281.807 281.807 0 0 1 56.162-5.629c19.815 0 41.052 3.642 63.733 10.913a1706.186 1706.186 0 0 1 69.036 23.779 1422.613 1422.613 0 0 0 69.041 23.452c22.665 7.041 43.694 10.57 63.081 10.57 26.846 0 49.43-4.408 67.706-13.22 18.266-8.809 35.996-23.557 53.174-44.248l13.217 10.567c-7.933 14.078-17.075 27.851-27.416 41.285a201.335 201.335 0 0 1-35.336 35.666c-13.217 10.35-27.867 18.709-43.926 25.114-16.094 6.368-33.805 9.567-53.185 9.567-17.622 0-34.681-2.634-51.184-7.933a293.934 293.934 0 0 1-47.909-20.135 654.632 654.632 0 0 1-44.919-26.096 905.109 905.109 0 0 0-43.596-26.088c-14.532-8.16-29.053-14.877-43.6-20.153a130.278 130.278 0 0 0-44.919-7.918c-11.002 0-22.688 1.531-35.011 4.609-12.325 3.082-22.464 7.039-30.382 11.894l-5.951-13.876zM372.171 74c37.421 0 71.67 5.178 102.72 15.529 31.047 10.343 57.798 25.209 80.26 44.573 22.464 19.38 39.846 43.275 52.184 71.675 12.33 28.416 18.508 60.448 18.508 96.129 0 35.656-6.178 67.706-18.508 96.106-12.338 28.398-29.72 52.295-52.184 71.675-22.462 19.379-49.213 34.246-80.26 44.589-31.05 10.351-65.299 15.529-102.72 15.529-37.437 0-71.667-5.181-102.717-15.529-31.05-10.343-57.798-25.21-80.26-44.589-22.457-19.38-39.862-43.277-52.184-71.675-12.341-28.4-18.501-60.45-18.501-96.106 0-35.681 6.16-67.713 18.501-96.129 12.322-28.4 29.727-52.295 52.184-71.675 22.462-19.364 49.21-34.23 80.26-44.573C300.504 79.178 334.734 74 372.171 74" fill="#dcdcdc" fill-rule="nonzero"/></svg>
